<?xml version="1.0" standalone="no"?>
<!DOCTYPE svg PUBLIC "-//W3C//DTD SVG 20010904//EN"
 "http://www.w3.org/TR/2001/REC-SVG-20010904/DTD/svg10.dtd">
<svg version="1.0" xmlns="http://www.w3.org/2000/svg"
 width="187.000000pt" height="40.000000pt" viewBox="0 0 187.000000 40.000000"
 preserveAspectRatio="xMidYMid meet">

<g transform="translate(0.000000,40.000000) scale(0.100000,-0.100000)"
fill="#000000" stroke="none">
<path d="M1572 348 c-25 -25 -6 -68 30 -68 9 0 22 9 28 20 22 40 -26 80 -58
48z"/>
<path d="M1153 343 c-43 -8 -53 -38 -53 -160 l0 -113 35 0 35 0 0 89 c0 77 2
90 18 94 9 3 3 5 -14 6 -36 1 -59 23 -50 47 5 14 10 14 42 -5 39 -23 49 -22
57 9 4 16 -1 23 -19 31 -14 5 -26 8 -27 8 -1 -1 -12 -4 -24 -6z"/>
<path d="M1490 334 l-35 -14 5 -123 5 -122 35 -3 35 -3 -3 108 c-1 59 -4 122
-5 139 l-2 32 -35 -14z"/>
<path d="M129 317 c-69 -46 -76 -142 -14 -204 30 -30 39 -33 90 -33 51 0 60 3
90 33 41 41 53 93 33 145 -29 76 -129 106 -199 59z m141 -14 c0 -9 -74 -178
-83 -190 -5 -7 -14 -13 -20 -13 -16 0 -1 60 36 142 27 59 40 76 51 72 9 -3 16
-8 16 -11z m-125 -60 c-5 -10 -8 -25 -8 -33 0 -8 3 -23 8 -32 12 -29 -14 -21
-27 7 -8 19 -8 31 0 50 13 28 39 36 27 8z m153 -8 c13 -29 -2 -75 -25 -75 -11
0 -11 4 -3 21 6 11 8 33 5 50 -8 35 8 38 23 4z"/>
<path d="M365 205 l0 -135 43 0 c37 0 42 3 42 23 0 13 -15 38 -35 57 -43 42
-49 71 -8 45 36 -24 99 -23 124 2 11 10 22 35 26 55 4 30 1 41 -20 62 -23 23
-34 26 -99 26 l-73 0 0 -135z m171 64 c26 -22 -3 -39 -66 -39 -32 0 -65 3 -74
6 -23 9 -20 33 7 44 27 12 114 5 133 -11z"/>
<path d="M1007 281 c-22 -17 -34 -32 -28 -36 6 -3 11 -37 11 -76 0 -56 4 -73
21 -90 11 -11 27 -19 36 -17 13 2 16 18 14 92 -2 65 1 91 11 97 10 7 10 9 1 9
-7 0 -13 11 -13 25 0 32 -6 31 -53 -4z"/>
<path d="M609 232 c-43 -38 -45 -101 -5 -140 39 -40 98 -37 137 6 40 44 40 93
0 133 -40 39 -89 40 -132 1z m83 -23 c29 -56 18 -146 -16 -133 -22 8 -36 51
-36 108 0 78 21 88 52 25z"/>
<path d="M790 165 l0 -95 38 0 39 0 -4 53 c-6 67 14 99 47 79 12 -7 23 -12 25
-10 8 10 25 48 25 57 0 17 -56 13 -70 -4 -7 -8 -16 -15 -21 -15 -5 0 -9 7 -9
15 0 10 -11 15 -35 15 l-35 0 0 -95z"/>
<path d="M1278 231 c-67 -60 -28 -166 62 -166 58 0 95 39 95 101 0 38 -5 50
-28 70 -40 34 -88 32 -129 -5z m77 -4 c32 -49 28 -157 -5 -157 -27 0 -56 112
-40 154 12 32 25 33 45 3z"/>
<path d="M1583 248 c-21 -10 -23 -18 -23 -95 l0 -83 41 0 c33 0 40 3 35 16 -3
9 -6 51 -6 95 0 84 -3 88 -47 67z"/>
<path d="M1689 231 c-38 -38 -40 -97 -5 -138 19 -22 32 -28 66 -28 35 0 47 6
71 33 40 44 40 93 0 133 -22 21 -39 29 -66 29 -27 0 -44 -8 -66 -29z m83 -22
c10 -19 18 -53 18 -75 0 -94 -60 -66 -68 31 -7 91 16 112 50 44z"/>
</g>
</svg>
